<svg xmlns="http://www.w3.org/2000/svg" viewBox="0 0 894.7 357.7" xmlns:v="https://vecta.io/nano"><path d="M131.9 125.8h22.3v19.9h16v15.8h-16v32.6c0 6.9 2.2 8.2 9.6 8.2h6.4v16.1H156c-18 0-24.1-3.5-24.1-20.4v-36.5h-11.5v-15.8h11.5v-19.9zm113.8 69.9c-6.5 17.2-21.8 24.6-36.3 24.6-23.7 0-39.9-14.3-39.9-38.6 0-23.3 17.7-38.1 39-38.1 24.2 0 39 18.3 37.5 44.2h-54c.7 10.4 8.7 15.1 16.8 15.1 8.5 0 13.8-3 16.4-7.3l20.5.1zm-53.4-21.4h31.5c-.4-9.2-6.8-13.7-15.3-13.7-8 0-15 4.1-16.2 13.7zm130.3-1.9h-20.8c-2-8.5-7.3-11.5-13.9-11.5-8 0-15.8 5.4-15.8 21 0 15.8 7.9 21.1 15.8 21.1 8.2 0 13.3-4.3 14.9-11.2h20.8c-5 21.6-22.5 28.5-37.1 28.5-24 0-37.2-15.4-37.2-38.6s15.2-38.1 37.2-38.1c15.1 0 31.7 6.8 36.1 28.8zm25.8-17.1c3.2-5.4 11.1-11.2 22.6-11.2 18.7 0 24.5 11 24.5 30.7v43.7h-22.3v-38.1c0-10.4-.3-18.9-11.1-18.9-9.6 0-13.6 6.2-13.6 19.8v37.3h-22.3v-98.1h22.3v34.8zm98.4 11.8c-1.5-5.4-7.2-7-14.2-7-7.7 0-11.6 1.8-11.6 5.4 0 3.4 2.6 5.3 8.9 6.5l13.6 2.4c17.5 3.2 25.8 8.4 25.8 21.2 0 16.4-15 24.6-35.2 24.6-19.4 0-33.1-8.2-35.7-25.4h20.7c2 7 7.6 9.2 15.3 9.2 8 0 13.5-2.2 13.5-6.5 0-3.2-2.8-5.3-11.4-6.8l-13-2.2c-14.1-2.3-23.7-9.4-23.7-22.3 0-14.5 15.3-22.5 33.3-22.5 16.6 0 31.7 6.6 34.5 23.3h-20.8zm34.1-41.3h22.3v19.9h16v15.8h-16v32.6c0 6.9 2.2 8.2 9.6 8.2h6.3v16.1H505c-18 0-24.1-3.5-24.1-20.4v-36.5h-11.5v-15.8h11.5v-19.9zm89.1 44.4c0-8.7-4.2-11.6-12.3-11.6-7.2 0-12 3.7-13 10.7h-20.8c1.1-13.7 14.1-25.8 35.7-25.8 21 0 32.9 8.5 32.5 30.6l-.3 15.8v7.6c0 8 .5 16.6 1.6 21.1h-21.9l-.3-8.8c-5.4 7.7-14.1 10.6-24.5 10.6-13.8 0-25.2-8.1-25.2-21.4 0-17.9 20.2-23.7 48.4-25.8l.1-3zm.6 16c-15.6 1.5-26 3.1-26 11.1 0 4.7 4.5 7.8 10.3 7.8 8.9 0 15.7-3.8 15.7-17.2v-1.7zm72.4-19.1c-2-.3-4.1-.5-6.1-.4-10.8 0-16.4 3.9-16.4 15.3v36.5h-22.3v-72.8h21.5v13.8c3.4-8.7 9.5-13.9 19.9-14.3h1.6c.6 0 1.2 0 1.8.1v21.8zm49.3 0c-1.5-5.4-7.2-7-14.2-7-7.7 0-11.6 1.8-11.6 5.4 0 3.4 2.6 5.3 8.9 6.5l13.5 2.4c17.5 3.2 25.8 8.4 25.8 21.2 0 16.4-15 24.6-35.2 24.6-19.3 0-33.2-8.2-35.7-25.4h20.7c2 7 7.6 9.2 15.3 9.2 8 0 13.5-2.2 13.5-6.5 0-3.2-2.8-5.3-11.4-6.8l-13-2.2c-14.1-2.3-23.6-9.4-23.6-22.3 0-14.5 15.3-22.5 33.3-22.5 16.6 0 31.7 6.6 34.5 23.3h-20.8z" fill="#fff"/><path d="M714.5,237.3v-18.8h60.2v18.8H714.5z" fill="#39c463"/></svg>